<svg xmlns="http://www.w3.org/2000/svg" width="16.044" height="16.044" viewBox="0 0 16.044 16.044">
  <path id="Path_10" data-name="Path 10" d="M15.694,9.061h0a.47.47,0,0,0-.576.332l-.011.041L14.02,9.142a6.118,6.118,0,0,0,0-2.242l1.088-.291.011.041a.47.47,0,0,0,.908-.243l-.265-.989a.47.47,0,0,0-.908.243l.011.041-1.088.292a6.105,6.105,0,0,0-1.123-1.939l.8-.8.03.03a.47.47,0,0,0,.665-.665L13.422,1.9a.47.47,0,1,0-.665.665l.03.03-.8.8A6.105,6.105,0,0,0,10.05,2.266l.291-1.088.041.011a.47.47,0,1,0,.243-.908L9.636.016a.47.47,0,1,0-.243.908l.041.011L9.142,2.023a6.118,6.118,0,0,0-2.242,0L6.609.935,6.649.924A.47.47,0,0,0,6.406.016L5.417.281a.47.47,0,1,0,.243.908L5.7,1.178l.291,1.088A6.106,6.106,0,0,0,4.053,3.389l-.8-.8.03-.03A.47.47,0,0,0,2.62,1.9L1.9,2.62a.47.47,0,0,0,.665.665l.03-.03.8.8A6.106,6.106,0,0,0,2.265,5.993L1.178,5.7l.011-.041A.47.47,0,1,0,.28,5.417l-.265.989a.47.47,0,0,0,.908.243l.011-.041L2.022,6.9a6.118,6.118,0,0,0,0,2.242L.934,9.434.923,9.393a.47.47,0,1,0-.908.243l.265.989a.47.47,0,1,0,.908-.243l-.011-.041,1.088-.291A6.106,6.106,0,0,0,3.388,11.99l-.8.8-.03-.03a.47.47,0,1,0-.665.665l.724.724a.47.47,0,0,0,.665-.665l-.03-.03.8-.8a6.105,6.105,0,0,0,1.939,1.123L5.7,14.865l-.041-.011a.47.47,0,0,0-.243.908l.989.265a.47.47,0,0,0,.243-.908l-.041-.011L6.9,14.021a6.118,6.118,0,0,0,2.242,0l.291,1.088-.041.011a.47.47,0,0,0,.243.908l.989-.265a.47.47,0,1,0-.243-.908l-.041.011-.291-1.088a6.106,6.106,0,0,0,1.939-1.123l.8.8-.03.03a.47.47,0,0,0,.665.665l.724-.724a.47.47,0,1,0-.665-.665l-.03.03-.8-.8a6.105,6.105,0,0,0,1.123-1.939l1.088.291-.011.041a.47.47,0,1,0,.908.243l.265-.989A.47.47,0,0,0,15.694,9.061ZM4.5,8.492a.47.47,0,1,1,.47-.47A.47.47,0,0,1,4.5,8.492Zm1.032,2.492a.47.47,0,1,1,.47-.47A.47.47,0,0,1,5.529,10.984ZM5.529,6A.47.47,0,1,1,6,5.53.47.47,0,0,1,5.529,6ZM7.014,9.5a.47.47,0,1,1,.47-.47A.47.47,0,0,1,7.014,9.5Zm0-2.014a.47.47,0,1,1,.47-.47A.47.47,0,0,1,7.014,7.485Zm1.007,4.531a.47.47,0,1,1,.47-.47A.47.47,0,0,1,8.021,12.016Zm0-7.048a.47.47,0,1,1,.47-.47A.47.47,0,0,1,8.021,4.968ZM9.028,9.5a.47.47,0,1,1,.47-.47A.47.47,0,0,1,9.028,9.5Zm0-2.014a.47.47,0,1,1,.47-.47A.47.47,0,0,1,9.028,7.485Zm1.485,3.5a.47.47,0,1,1,.47-.47A.47.47,0,0,1,10.513,10.984Zm0-4.984a.47.47,0,1,1,.47-.47A.47.47,0,0,1,10.513,6Zm1.032,2.492a.47.47,0,1,1,.47-.47A.47.47,0,0,1,11.545,8.492Z" transform="translate(0.001 0)" fill="#bb6ad9"/>
</svg>
