<svg id="Group_238" data-name="Group 238" xmlns="http://www.w3.org/2000/svg" width="8.778" height="18.894" viewBox="0 0 8.778 18.894">
  <g id="Group_237" data-name="Group 237" transform="translate(0 0)">
    <path id="Path_97" data-name="Path 97" d="M953.013,677.519v9.135a.238.238,0,0,0,.238.238h3.392a.238.238,0,0,0,.238-.238V677.37h2.459a.238.238,0,0,0,.237-.218l.236-2.8a.238.238,0,0,0-.237-.258h-2.7v-1.984a.842.842,0,0,1,.842-.842h1.9a.238.238,0,0,0,.238-.238v-2.8a.238.238,0,0,0-.238-.238h-3.2a3.4,3.4,0,0,0-3.4,3.4v2.7h-1.7a.238.238,0,0,0-.238.238v2.8a.238.238,0,0,0,.238.238h1.7Z" transform="translate(-951.079 -667.998)" fill="#3c5a99" fill-rule="evenodd"/>
  </g>
</svg>
