<svg xmlns="http://www.w3.org/2000/svg" width="7.335" height="15.789" viewBox="0 0 7.335 15.789">
  <g id="Group_40" data-name="Group 40" transform="translate(0 0)">
    <path id="Path_22" data-name="Path 22" d="M394.088,221.838v7.633a.2.2,0,0,0,.2.2h2.835a.2.2,0,0,0,.2-.2v-7.758h2.055a.2.2,0,0,0,.2-.182l.2-2.338a.2.2,0,0,0-.2-.216H397.32V217.32a.7.7,0,0,1,.7-.7h1.584a.2.2,0,0,0,.2-.2V214.08a.2.2,0,0,0-.2-.2h-2.676a2.843,2.843,0,0,0-2.844,2.844v2.253h-1.417a.2.2,0,0,0-.2.2v2.338a.2.2,0,0,0,.2.2h1.417Z" transform="translate(-392.472 -213.881)" fill="#585858" fill-rule="evenodd"/>
  </g>
</svg>
