<svg xmlns="http://www.w3.org/2000/svg" width="17.506" height="20.002" viewBox="0 0 17.506 20.002">
  <path id="Path_20" data-name="Path 20" d="M30.879,14.069,28.848,12.9l1.761-1.038a.683.683,0,1,0-.693-1.176l-2.425,1.43L23.833,10,27.489,7.89l2.426,1.43a.683.683,0,0,0,.693-1.176L28.847,7.106l2.032-1.173A.683.683,0,1,0,30.2,4.751L28.165,5.924l-.018-2.044a.683.683,0,0,0-1.365.012l.025,2.816L23.15,8.819V4.6L25.6,3.211a.683.683,0,1,0-.672-1.188L23.15,3.029V.683a.683.683,0,0,0-1.365,0V3.029l-1.78-1.006a.683.683,0,1,0-.672,1.188L21.785,4.6V8.819L18.129,6.708l.025-2.816a.682.682,0,0,0-.676-.689h-.006a.683.683,0,0,0-.682.676l-.018,2.044L14.739,4.751a.683.683,0,1,0-.683,1.182l2.032,1.173L14.327,8.144A.683.683,0,1,0,15.02,9.32l2.426-1.43L21.1,10l-3.657,2.111-2.426-1.43a.683.683,0,1,0-.693,1.176L16.088,12.9l-2.032,1.173a.683.683,0,1,0,.683,1.182l2.032-1.173.018,2.044a.683.683,0,0,0,.682.676h.006a.682.682,0,0,0,.676-.689l-.025-2.816,3.657-2.111v4.222l-2.451,1.386a.683.683,0,1,0,.672,1.188l1.78-1.006V19.32a.683.683,0,1,0,1.365,0V16.973l1.78,1.006a.683.683,0,1,0,.672-1.188L23.15,15.405V11.183l3.656,2.111-.026,2.816a.682.682,0,0,0,.676.689h.006a.683.683,0,0,0,.682-.676l.019-2.045L30.2,15.251a.683.683,0,1,0,.682-1.182Z" transform="translate(-13.715)" fill="#7bcbf5"/>
</svg>
