<svg id="Group_239" data-name="Group 239" xmlns="http://www.w3.org/2000/svg" xmlns:xlink="http://www.w3.org/1999/xlink" width="19.708" height="19.708" viewBox="0 0 19.708 19.708">
  <defs>
    <linearGradient id="linear-gradient" x1="0.03" y1="0.9" x2="1.473" y2="-0.329" gradientUnits="objectBoundingBox">
      <stop offset="0.001" stop-color="#fbe18a"/>
      <stop offset="0.209" stop-color="#fcbb45"/>
      <stop offset="0.376" stop-color="#f75274"/>
      <stop offset="0.524" stop-color="#d53692"/>
      <stop offset="0.739" stop-color="#8f39ce"/>
      <stop offset="1" stop-color="#5b4fe9"/>
    </linearGradient>
  </defs>
  <path id="Path_98" data-name="Path 98" d="M1082.879,668.186a1.159,1.159,0,1,0,1.159,1.158A1.159,1.159,0,0,0,1082.879,668.186Zm-5.151,1.486a4.867,4.867,0,1,0,4.867,4.867A4.873,4.873,0,0,0,1077.728,669.672Zm0,7.984a3.118,3.118,0,1,1,3.118-3.118A3.121,3.121,0,0,1,1077.728,677.656Zm9.821-7.163a5.936,5.936,0,0,0-5.936-5.937h-7.835a5.937,5.937,0,0,0-5.937,5.937v7.836a5.936,5.936,0,0,0,5.937,5.936h7.835a5.936,5.936,0,0,0,5.936-5.936Zm-1.859,7.836a4.077,4.077,0,0,1-4.077,4.077h-7.835a4.077,4.077,0,0,1-4.078-4.077v-7.836a4.078,4.078,0,0,1,4.078-4.077h7.835a4.077,4.077,0,0,1,4.077,4.077Z" transform="translate(-1067.84 -664.557)" fill="url(#linear-gradient)"/>
</svg>
