<?xml version="1.0" standalone="no"?>
<!DOCTYPE svg PUBLIC "-//W3C//DTD SVG 20010904//EN"
 "http://www.w3.org/TR/2001/REC-SVG-20010904/DTD/svg10.dtd">
<svg version="1.0" xmlns="http://www.w3.org/2000/svg"
 width="700.000000pt" height="700.000000pt" viewBox="0 0 700.000000 700.000000"
 preserveAspectRatio="xMidYMid meet">
<metadata>
Created by potrace 1.11, written by Peter Selinger 2001-2013
</metadata>
<g transform="translate(0.000000,700.000000) scale(0.100000,-0.100000)"
fill="#000000" stroke="none">
<path d="M3420 6837 l0 -34 -132 -6 c-303 -14 -659 -89 -963 -204 -381 -144
-726 -354 -1057 -644 -44 -39 -47 -40 -70 -25 -23 15 -26 14 -71 -32 -47 -48
-47 -48 -27 -67 19 -18 19 -19 -58 -104 -326 -360 -554 -753 -702 -1207 -66
-203 -108 -397 -142 -654 -20 -148 -16 -605 6 -765 73 -531 235 -971 520
-1405 98 -150 148 -215 282 -370 90 -104 91 -105 70 -122 -21 -16 -21 -17 28
-67 50 -50 50 -51 70 -32 21 19 22 19 111 -60 490 -432 1061 -702 1705 -805
85 -13 217 -27 293 -31 l137 -6 0 -34 0 -33 80 0 80 0 0 33 0 34 133 6 c713
33 1442 338 2007 840 83 74 86 75 109 60 23 -15 25 -13 69 30 45 45 45 47 28
66 -18 20 -17 22 66 118 166 193 244 300 362 496 235 390 376 799 442 1282 14
98 18 197 18 400 1 320 -18 491 -84 770 -125 529 -386 1023 -763 1446 -85 95
-86 97 -66 115 19 17 19 18 -28 66 l-47 48 -21 -20 -21 -20 -74 66 c-556 493
-1293 799 -1997 831 l-133 6 0 34 0 33 -80 0 -80 0 0 -33z m385 -328 c740 -63
1392 -361 1907 -872 471 -467 766 -1052 870 -1727 19 -125 22 -185 22 -430 0
-241 -3 -306 -21 -420 -105 -671 -380 -1229 -832 -1694 -748 -767 -1813 -1082
-2861 -844 -1126 255 -2020 1153 -2278 2288 -58 254 -67 345 -67 675 1 337 14
454 79 720 251 1016 988 1817 1984 2156 371 126 814 181 1197 148z"/>
<path d="M3372 6459 c-705 -47 -1364 -340 -1871 -834 -497 -483 -782 -1046
-888 -1750 -25 -169 -25 -619 0 -789 105 -701 398 -1277 894 -1756 472 -456
1076 -740 1738 -816 179 -21 595 -15 755 11 864 136 1587 595 2061 1308 252
380 410 801 475 1267 22 157 25 565 6 720 -116 921 -619 1715 -1391 2195 -422
263 -885 411 -1386 444 -174 12 -222 12 -393 0z m252 -374 c621 -73 1170 -341
1597 -781 393 -406 632 -896 715 -1469 27 -181 24 -524 -5 -714 -86 -564 -333
-1058 -727 -1454 -467 -471 -1066 -740 -1723 -776 -755 -42 -1483 237 -2013
772 -795 801 -983 2003 -472 3009 357 702 1025 1212 1797 1373 261 54 578 70
831 40z"/>
<path d="M3147 6050 c-627 -49 -1204 -314 -1642 -754 -414 -416 -663 -935
-731 -1524 -22 -186 -15 -506 15 -681 95 -554 329 -1010 721 -1401 414 -415
900 -654 1505 -742 119 -17 521 -17 640 0 774 112 1406 503 1827 1132 212 316
349 679 410 1085 17 117 17 550 0 660 -78 491 -226 847 -506 1219 -101 135
-298 338 -426 440 -374 297 -827 491 -1290 550 -150 19 -387 27 -523 16z
m-303 -1901 c3 -3 6 -196 6 -428 1 -307 -2 -427 -11 -437 -9 -11 -9 -14 0 -14
8 0 9 -5 2 -19 -8 -14 -7 -22 3 -30 18 -15 15 -213 -4 -236 -10 -12 -10 -21
-1 -41 15 -33 14 -34 -9 -34 -14 0 -21 9 -26 34 -5 27 -13 37 -36 45 -17 6
-34 11 -39 11 -17 0 -39 -33 -39 -61 l0 -29 -75 0 -75 0 0 618 c0 340 3 622 7
626 8 8 289 4 297 -5z m715 -12 c2 -5 7 -3 12 4 8 12 12 11 23 -3 16 -22 27
-23 20 -3 -4 9 0 15 7 15 8 1 40 2 72 3 36 1 63 -3 69 -10 11 -14 7 -207 -4
-219 -14 -13 -23 7 -28 64 -4 42 -9 57 -20 57 -10 0 -14 -9 -13 -25 2 -34 8
-58 16 -66 4 -4 7 -22 7 -39 0 -17 3 -34 6 -37 10 -10 77 13 93 32 9 10 26 21
38 25 18 5 25 1 32 -18 13 -34 61 -27 61 9 0 20 4 23 36 20 19 -2 40 -8 47
-15 6 -6 18 -11 27 -11 16 0 72 -51 72 -67 0 -4 4 -17 8 -28 4 -11 7 -186 6
-390 l-1 -370 -25 -50 c-29 -59 -82 -93 -157 -102 -57 -6 -136 22 -174 63
l-24 25 -11 -33 -11 -33 -133 -3 c-100 -2 -135 1 -142 10 -4 7 -8 108 -8 224
0 169 3 214 15 230 19 25 19 34 0 34 -14 0 -15 43 -14 350 1 388 0 385 62 373
18 -3 34 -10 36 -16z m-552 -19 c3 2 11 -7 17 -20 6 -12 27 -33 46 -46 42 -28
49 -42 21 -42 -11 0 -23 -4 -26 -10 -3 -5 -13 -10 -22 -10 -13 0 -13 3 -3 15
11 13 10 18 -6 30 -24 18 -34 19 -35 3 -1 -7 -2 -19 -3 -27 -1 -15 -25 -28
-27 -14 -1 15 -7 38 -14 56 -4 10 -3 17 5 17 8 0 10 13 7 40 -4 40 -4 41 15
23 11 -10 22 -17 25 -15z m254 11 c11 -21 9 -21 -23 -15 -27 5 -41 1 -62 -15
l-28 -22 -21 22 c-17 16 -19 23 -9 33 9 9 12 8 12 -5 0 -10 8 -17 20 -17 22 0
28 25 8 33 -7 3 10 6 39 6 44 1 54 -3 64 -20z m9 -120 c0 -16 -7 -19 -47 -18
-27 1 -59 4 -73 8 -24 7 -22 9 15 22 6 2 26 9 45 15 39 14 60 4 60 -27z
m-1906 -79 c36 -12 78 -32 93 -45 37 -32 16 -32 -27 0 -26 19 -46 25 -85 25
-47 0 -75 12 -75 32 0 13 23 10 94 -12z m755 11 c11 -1 10 -5 -4 -21 -17 -19
-17 -21 0 -40 19 -21 7 -28 -13 -8 -16 16 -15 -3 2 -24 7 -10 16 -15 19 -12 3
4 12 -5 18 -20 7 -14 16 -26 21 -26 12 0 10 14 -4 28 -9 9 -7 12 10 12 13 0
22 6 22 15 0 8 -4 15 -10 15 -5 0 -10 5 -10 11 0 6 8 8 19 4 11 -3 22 -2 25 3
3 5 -7 12 -23 15 -23 5 -28 10 -24 26 l5 20 40 -20 c43 -22 56 -42 39 -63 -6
-7 -8 -15 -5 -18 3 -3 -7 -8 -21 -12 -30 -8 -31 -20 -5 -54 25 -31 13 -47 -29
-37 -32 7 -40 20 -18 28 7 3 5 6 -5 6 -10 1 -18 -4 -18 -9 0 -7 -6 -7 -19 -1
-10 6 -21 7 -25 4 -3 -4 -27 -6 -51 -4 -34 1 -45 -2 -45 -13 0 -21 -19 -30
-35 -16 -12 10 -15 9 -15 -3 0 -9 9 -19 20 -22 16 -5 20 -14 19 -48 -1 -27 -3
-33 -6 -17 -6 33 -21 48 -28 28 -4 -9 1 -30 9 -47 30 -57 13 -108 -20 -63 -12
16 -13 16 -26 0 -12 -16 -32 -18 -101 -9 -4 1 -5 24 -1 51 4 28 3 50 0 50 -17
0 -76 -54 -66 -60 7 -4 3 -13 -10 -25 -20 -18 -20 -18 -20 76 1 153 47 227
174 275 57 22 74 25 97 17 21 -8 31 -8 38 1 9 10 27 12 80 7z m2555 -1 c18 -6
26 -19 31 -51 5 -30 10 -38 16 -28 8 12 12 11 23 -3 16 -22 32 -23 40 -2 10
27 7 36 -13 29 -16 -5 -18 -1 -13 22 3 16 7 22 9 16 3 -7 14 -13 25 -13 11 0
38 -18 59 -40 22 -22 45 -40 53 -40 8 0 27 -26 43 -57 27 -55 28 -66 31 -210
l2 -153 -187 -2 -188 -3 1 -148 c0 -81 5 -151 10 -156 5 -5 21 -11 36 -15 35
-8 39 7 47 149 l6 110 41 3 c30 2 45 -2 59 -18 23 -25 42 -26 50 0 4 14 15 20
34 20 41 0 43 -9 11 -42 -17 -16 -31 -35 -31 -41 -8 -62 -6 -77 14 -98 12 -13
21 -27 19 -31 -1 -5 11 -8 26 -8 42 0 44 -7 17 -59 -43 -85 -122 -140 -100
-69 7 19 5 20 -26 14 -46 -9 -56 -22 -36 -44 23 -25 21 -42 -4 -42 -15 0 -19
4 -15 16 4 10 1 14 -6 12 -7 -3 -20 4 -29 15 -14 18 -16 19 -22 3 -5 -12 1
-19 18 -26 52 -20 23 -40 -56 -40 -37 0 -49 4 -49 15 0 8 -9 15 -20 15 -11 0
-20 -4 -20 -10 0 -21 -26 -9 -68 33 l-44 42 7 -33 c7 -33 6 -33 -17 -22 -132
69 -158 150 -158 488 0 281 15 347 97 425 43 41 59 50 116 67 25 8 27 7 22
-10 -5 -17 -2 -20 20 -18 19 2 25 7 22 20 -3 9 -1 18 4 20 23 7 72 6 93 -2z
m936 -175 l0 -185 -36 0 c-20 0 -51 -7 -69 -16 -59 -28 -63 -43 -66 -235 -3
-193 -6 -222 -22 -212 -6 4 -8 0 -4 -10 3 -10 2 -17 -2 -17 -5 0 -4 -17 1 -37
6 -21 12 -56 15 -78 4 -37 4 -38 -10 -21 -9 12 -25 19 -46 18 -36 -1 -35 -2
-17 43 19 45 3 45 -26 0 -13 -19 -27 -34 -33 -34 -32 3 -50 -5 -80 -37 -23
-24 -41 -35 -56 -32 -29 4 -35 24 -9 31 26 7 26 44 0 52 -20 6 -20 13 -18 468
l3 462 150 0 149 0 -3 -54 -3 -55 34 45 c31 40 104 89 135 89 10 0 13 -41 13
-185z m-2585 145 c8 -24 -4 -87 -14 -74 -3 5 -15 9 -26 9 -24 0 -32 34 -15 64
14 27 47 27 55 1z m244 -10 c3 -25 3 -25 -18 -6 -26 23 -27 39 -3 34 9 -2 19
-14 21 -28z m-186 -13 c2 -7 -3 -23 -13 -35 -18 -21 -18 -21 -23 -1 -3 12 -3
27 0 35 6 18 29 18 36 1z m-2073 -72 c-8 -24 -2 -55 11 -55 5 0 9 7 9 15 0 9
6 12 15 9 10 -4 13 -15 10 -33 -3 -14 -3 -21 0 -15 7 15 45 6 45 -11 0 -6 -9
-20 -19 -29 -20 -18 -35 -56 -22 -56 5 0 16 9 26 20 10 11 23 20 28 20 6 0 2
-9 -8 -20 -19 -21 -7 -28 13 -8 9 9 12 7 12 -9 0 -12 5 -25 10 -28 12 -7 13
-45 2 -45 -5 0 -17 9 -26 19 -13 15 -14 20 -4 25 7 3 4 5 -6 3 -24 -3 -34 -27
-11 -27 11 0 15 -5 11 -15 -4 -10 2 -19 17 -25 l22 -9 -22 -7 c-13 -3 -20 -10
-17 -15 3 -5 1 -9 -5 -9 -5 0 -11 10 -13 23 -2 17 -9 21 -28 19 -38 -4 -55 5
-40 23 13 16 7 45 -9 45 -6 0 -13 -11 -17 -25 -7 -28 -16 -31 -34 -11 -19 24
-42 7 -38 -26 3 -16 1 -31 -4 -34 -4 -3 -8 15 -8 40 0 34 4 46 15 46 8 0 15 7
15 15 0 18 12 19 27 4 18 -18 35 -1 22 23 -6 11 -9 33 -5 48 4 20 1 30 -11 34
-15 6 -15 8 0 19 16 12 17 26 2 60 -5 12 -1 25 11 38 17 19 19 19 25 2 3 -10
3 -27 -1 -38z m2127 15 c12 0 13 -3 3 -15 -6 -8 -9 -19 -5 -26 4 -6 1 -15 -6
-20 -7 -4 -10 -11 -6 -15 4 -4 13 -1 20 8 23 29 49 37 73 22 18 -13 23 -12 34
1 7 8 10 22 6 30 -3 8 -1 15 4 15 14 0 12 -94 -2 -108 -9 -9 -9 -15 0 -24 8
-8 12 -48 12 -116 0 -95 -2 -104 -20 -109 -25 -7 -26 -19 -1 -33 18 -9 19 -20
16 -162 -1 -84 -4 -155 -5 -158 -1 -3 -2 -8 -1 -12 0 -5 -11 -8 -25 -8 -14 0
-23 -4 -19 -10 3 -5 16 -10 28 -10 l21 0 -22 -16 c-18 -13 -21 -19 -11 -30 9
-11 8 -14 -6 -14 -21 0 -14 -24 8 -28 12 -2 17 3 17 18 0 12 4 18 10 15 5 -3
9 -30 8 -60 -1 -44 -5 -55 -18 -55 -9 0 -21 5 -28 12 -9 9 -15 9 -24 0 -22
-22 -46 -13 -86 33 -25 28 -42 41 -45 33 -2 -7 0 -21 5 -31 5 -9 6 -21 3 -26
-3 -5 1 -12 7 -14 7 -3 -19 -6 -59 -6 l-72 -1 0 144 0 145 27 -2 c21 -2 28 3
30 21 3 22 -4 26 -40 23 -16 -2 -18 7 -18 63 0 63 1 66 24 66 25 0 44 -35 47
-84 1 -17 2 -18 6 -3 5 21 22 22 29 2 9 -24 44 -19 44 6 0 16 -5 20 -20 16
-17 -4 -19 -1 -14 19 4 17 1 26 -10 30 -9 3 -16 12 -16 20 0 8 -6 14 -14 14
-11 0 -12 5 -3 23 10 22 12 22 27 7 9 -9 20 -24 23 -34 4 -9 12 -14 18 -11 6
4 8 13 5 20 -3 8 0 16 7 19 8 3 4 11 -10 24 -13 11 -23 28 -23 37 0 10 -5 15
-14 12 -14 -6 -41 38 -37 60 1 8 -4 10 -14 7 -9 -4 -15 -1 -15 7 0 7 -7 20
-15 29 -8 9 -16 39 -17 69 -2 45 1 55 24 74 27 23 44 57 28 57 -6 0 -10 7 -10
15 0 9 6 12 15 9 8 -4 15 -12 15 -20 0 -18 6 -18 40 3 16 9 31 26 35 37 4 13
8 16 12 9 2 -7 12 -13 20 -13z m-1613 -12 c21 -30 20 -37 -4 -31 -14 4 -30 -3
-46 -18 l-24 -23 -22 22 c-17 17 -20 24 -10 34 9 9 12 8 12 -5 0 -10 8 -17 20
-17 23 0 27 18 5 26 -22 9 -9 23 15 17 11 -3 20 0 20 6 0 18 18 12 34 -11z
m-240 -13 c3 -8 12 -15 19 -15 8 0 19 -11 25 -25 7 -14 28 -35 47 -46 37 -22
45 -39 19 -39 -9 0 -18 -9 -21 -20 -3 -11 -9 -20 -14 -20 -15 0 -21 21 -9 35
9 11 7 16 -9 24 -11 6 -26 11 -34 11 -9 0 -19 15 -24 38 -5 20 -15 36 -21 35
-7 -2 -12 2 -12 7 0 6 6 10 13 10 8 0 7 4 -3 10 -13 8 -13 10 1 10 9 0 19 -7
23 -15z m1090 -71 c2 -27 7 -67 11 -88 6 -29 5 -37 -4 -31 -7 4 -10 13 -7 21
9 23 -3 16 -31 -17 -30 -35 -70 -38 -65 -4 20 125 26 142 53 150 10 4 19 14
19 23 0 38 21 -8 24 -54z m-804 -118 l0 -69 -25 23 c-25 23 -33 50 -16 50 5 0
7 9 4 20 -3 11 -9 17 -14 14 -5 -3 -7 -10 -4 -15 4 -5 -3 -9 -14 -9 -11 0 -25
9 -31 20 -6 11 -21 20 -33 20 -19 0 -18 2 8 15 17 8 46 18 65 23 49 13 60 -5
60 -92z m-642 61 c-7 -14 -13 -17 -16 -9 -6 19 6 44 18 37 7 -4 6 -14 -2 -28z
m1206 -39 c-4 -15 0 -18 25 -18 35 0 47 13 26 30 -11 9 -12 16 -2 31 15 25 37
24 37 -1 0 -11 6 -20 13 -20 7 0 5 -5 -5 -11 -17 -10 -17 -15 4 -71 9 -23 17
-28 44 -28 18 0 36 5 39 10 9 14 26 12 24 -2 -4 -29 2 -38 26 -38 23 0 25 -4
25 -44 0 -24 -5 -46 -11 -48 -7 -2 -7 -11 1 -30 8 -16 10 -41 6 -62 -6 -29
-11 -36 -30 -36 -13 0 -27 -7 -30 -16 -9 -23 9 -48 36 -49 23 0 23 -1 26 -146
3 -118 0 -148 -11 -158 -10 -8 -54 -11 -143 -9 l-129 3 -6 40 c-4 30 -7 36
-13 23 -5 -10 -13 -18 -19 -18 -6 0 -21 -12 -33 -27 -18 -23 -30 -27 -87 -31
-113 -7 -192 39 -217 126 -13 47 -13 246 0 292 15 55 65 95 172 139 54 23 100
41 103 41 2 0 12 -14 20 -31 20 -38 32 -31 16 9 -12 28 -10 32 36 76 43 41 46
47 31 57 -12 6 -18 22 -18 46 l0 36 25 -23 c16 -15 23 -30 19 -42z m-811 -38
c19 -23 12 -52 -12 -48 -10 2 -17 15 -19 36 -4 37 6 41 31 12z m57 -40 c0 -5
-9 -10 -21 -10 -11 0 -17 5 -14 10 3 6 13 10 21 10 8 0 14 -4 14 -10z m-370
-60 c0 -5 -4 -10 -10 -10 -5 0 -10 5 -10 10 0 6 5 10 10 10 6 0 10 -4 10 -10z
m-42 -24 c-15 -11 -16 -18 -7 -47 6 -19 13 -40 15 -48 3 -9 8 -10 17 -3 8 7
18 6 31 -4 11 -8 16 -14 10 -14 -17 -1 41 -40 59 -40 15 0 23 -23 18 -53 -1
-4 10 -5 23 -1 13 3 27 1 30 -5 4 -6 16 -11 27 -11 16 0 19 -7 19 -52 1 -76
19 -113 56 -113 21 0 30 -6 32 -20 3 -11 9 -31 15 -45 6 -14 10 -32 9 -40 -1
-9 1 -10 4 -3 3 7 11 10 17 7 7 -2 18 6 26 18 12 19 11 23 -5 35 -10 7 -24 13
-31 13 -16 0 -16 10 -3 45 l10 25 20 -20 c11 -11 20 -24 20 -29 0 -6 5 -13 12
-17 8 -5 9 0 6 14 -4 12 -2 22 3 22 17 0 9 25 -11 38 -11 7 -20 19 -20 27 0 9
-6 12 -15 9 -9 -4 -15 0 -15 10 0 9 7 16 16 16 8 0 13 4 9 10 -3 5 -12 7 -20
4 -7 -3 -18 3 -24 15 -16 28 -14 35 5 17 23 -23 35 -20 28 8 -3 13 -1 27 5 30
21 13 11 37 -21 51 -30 13 -23 14 99 14 76 0 135 -4 138 -9 4 -6 3 -47 -1 -91
-6 -68 -10 -82 -25 -86 -21 -6 -26 -23 -8 -23 8 0 9 -11 5 -32 -8 -42 -11 -44
-41 -24 -21 14 -29 15 -41 5 -8 -6 -14 -18 -14 -26 0 -9 -6 -12 -19 -8 -11 3
-24 -1 -32 -12 -12 -15 -12 -16 2 -11 18 7 59 -29 59 -50 0 -28 -132 -71 -156
-51 -11 9 -18 8 -34 -6 -16 -14 -22 -15 -35 -5 -8 6 -13 20 -12 30 1 10 -2 19
-8 19 -5 0 -10 -9 -10 -22 0 -20 -5 -22 -51 -21 -59 2 -103 22 -155 73 -39 39
-73 106 -63 123 3 5 0 15 -6 24 -8 8 -11 30 -7 54 3 22 1 43 -4 46 -5 3 -9 25
-9 50 0 33 5 47 20 56 23 15 26 34 6 41 -16 7 -26 95 -11 101 5 3 21 5 35 5
23 0 24 -1 8 -13z m97 -16 c3 -5 1 -10 -4 -10 -6 0 -11 5 -11 10 0 6 2 10 4
10 3 0 8 -4 11 -10z m425 -446 c0 -9 -5 -14 -12 -12 -18 6 -21 28 -4 28 9 0
16 -7 16 -16z"/>
<path d="M2590 3751 c-14 -27 -2 -51 26 -51 29 0 40 21 24 49 -14 26 -36 27
-50 2z"/>
<path d="M2660 3700 c0 -5 5 -10 10 -10 6 0 10 5 10 10 0 6 -4 10 -10 10 -5 0
-10 -4 -10 -10z"/>
<path d="M2770 3556 c0 -14 8 -30 19 -35 16 -9 18 -6 17 22 -1 41 -36 53 -36
13z"/>
<path d="M2558 3503 c7 -3 16 -2 19 1 4 3 -2 6 -13 5 -11 0 -14 -3 -6 -6z"/>
<path d="M2713 3281 c1 -25 7 -41 15 -41 7 0 15 -7 18 -15 4 -8 15 -15 25 -15
31 0 22 33 -21 74 l-40 37 3 -40z"/>
<path d="M2780 3190 c0 -13 11 -13 30 0 12 8 11 10 -7 10 -13 0 -23 -4 -23
-10z"/>
<path d="M2730 3066 c0 -8 4 -17 9 -20 11 -7 33 18 24 27 -12 12 -33 7 -33 -7z"/>
<path d="M3626 4115 c-9 -25 -8 -27 17 -23 12 2 22 10 22 18 0 21 -31 24 -39
5z"/>
<path d="M3711 4092 c-8 -15 -7 -23 2 -30 17 -14 40 1 35 23 -5 26 -25 30 -37
7z"/>
<path d="M3585 4080 c-3 -5 -1 -10 4 -10 6 0 11 5 11 10 0 6 -2 10 -4 10 -3 0
-8 -4 -11 -10z"/>
<path d="M3570 3994 c0 -9 5 -14 12 -12 18 6 21 28 4 28 -9 0 -16 -7 -16 -16z"/>
<path d="M3696 3841 c-15 -16 -15 -19 -1 -24 8 -4 15 -13 15 -22 0 -17 2 -18
24 -9 22 8 20 51 -3 63 -14 8 -22 6 -35 -8z"/>
<path d="M3775 3844 c4 -11 10 -27 12 -37 6 -19 24 -18 31 1 2 7 -4 12 -13 12
-9 0 -15 7 -13 16 2 10 -3 19 -11 22 -11 3 -12 0 -6 -14z"/>
<path d="M3862 3846 c7 -8 15 -12 17 -11 5 6 -10 25 -20 25 -5 0 -4 -6 3 -14z"/>
<path d="M4010 3824 c0 -8 5 -12 10 -9 6 3 10 10 10 16 0 5 -4 9 -10 9 -5 0
-10 -7 -10 -16z"/>
<path d="M3987 3793 c-4 -3 -7 -11 -7 -17 0 -6 5 -5 12 2 6 6 9 14 7 17 -3 3
-9 2 -12 -2z"/>
<path d="M3788 3766 c-8 -8 -18 -33 -22 -55 -4 -28 -11 -41 -22 -41 -9 0 -14
-7 -12 -16 2 -8 8 -14 13 -12 6 2 12 -91 15 -259 4 -233 7 -264 23 -280 23
-23 48 -8 60 37 4 18 7 161 5 316 -3 273 -4 284 -24 304 -19 19 -23 20 -36 6z"/>
<path d="M4092 3759 c-7 -11 -11 -23 -9 -25 7 -7 29 24 25 36 -2 6 -9 1 -16
-11z"/>
<path d="M3877 3763 c-4 -3 -7 -13 -7 -21 0 -12 3 -12 15 -2 8 7 15 16 15 21
0 11 -14 12 -23 2z"/>
<path d="M3747 3753 c-11 -10 -8 -53 3 -53 6 0 10 14 10 30 0 31 -2 35 -13 23z"/>
<path d="M3860 3695 c0 -8 5 -15 10 -15 6 0 10 7 10 15 0 8 -4 15 -10 15 -5 0
-10 -7 -10 -15z"/>
<path d="M4070 3655 c0 -8 4 -15 10 -15 5 0 7 7 4 15 -4 8 -8 15 -10 15 -2 0
-4 -7 -4 -15z"/>
<path d="M3605 3621 c-6 -11 9 -23 19 -14 9 9 7 23 -3 23 -6 0 -12 -4 -16 -9z"/>
<path d="M3995 3601 c-3 -5 -1 -12 5 -16 12 -7 30 2 30 16 0 12 -27 12 -35 0z"/>
<path d="M4066 3591 c-4 -7 -5 -15 -2 -18 9 -9 19 4 14 18 -4 11 -6 11 -12 0z"/>
<path d="M3682 3553 c2 -10 10 -18 18 -18 8 0 16 8 18 18 2 12 -3 17 -18 17
-15 0 -20 -5 -18 -17z"/>
<path d="M4043 3544 c-8 -21 13 -42 28 -27 13 13 5 43 -11 43 -6 0 -13 -7 -17
-16z"/>
<path d="M3986 3453 c-3 -4 -6 -15 -6 -25 0 -24 33 -21 38 3 3 17 -21 33 -32
22z"/>
<path d="M3635 3269 c-4 -6 -5 -13 -2 -16 7 -7 27 6 27 18 0 12 -17 12 -25 -2z"/>
<path d="M2044 3915 c-5 -12 -1 -23 12 -32 17 -12 19 -12 22 3 2 9 -3 23 -12
32 -14 14 -16 14 -22 -3z"/>
<path d="M1899 3848 c-1 -2 -3 -13 -4 -25 -2 -19 1 -21 16 -12 23 12 25 39 4
39 -8 0 -16 -1 -16 -2z"/>
<path d="M1860 3786 c0 -9 5 -16 10 -16 6 0 10 4 10 9 0 6 -4 13 -10 16 -5 3
-10 -1 -10 -9z"/>
<path d="M1927 3794 c-13 -13 -7 -24 14 -24 11 0 19 5 17 12 -5 14 -22 21 -31
12z"/>
<path d="M1780 3740 c0 -5 5 -10 10 -10 6 0 10 5 10 10 0 6 -4 10 -10 10 -5 0
-10 -4 -10 -10z"/>
<path d="M1763 3675 c16 -9 31 -14 35 -11 8 9 0 14 -33 21 l-30 6 28 -16z"/>
<path d="M1740 3630 c0 -5 5 -10 11 -10 5 0 7 5 4 10 -3 6 -8 10 -11 10 -2 0
-4 -4 -4 -10z"/>
<path d="M1855 3630 c-3 -5 3 -10 14 -10 12 0 21 5 21 10 0 6 -6 10 -14 10 -8
0 -18 -4 -21 -10z"/>
<path d="M4620 3920 c0 -5 5 -10 11 -10 5 0 7 5 4 10 -3 6 -8 10 -11 10 -2 0
-4 -4 -4 -10z"/>
<path d="M4590 3815 c0 -19 4 -35 9 -35 14 0 23 18 12 24 -5 3 -7 15 -4 26 3
11 0 20 -6 20 -6 0 -11 -16 -11 -35z"/>
<path d="M4470 3829 c0 -5 5 -7 10 -4 6 3 10 8 10 11 0 2 -4 4 -10 4 -5 0 -10
-5 -10 -11z"/>
<path d="M4657 3814 c-4 -4 -7 -16 -7 -26 0 -14 6 -19 23 -16 14 2 22 10 22
23 0 20 -25 32 -38 19z"/>
<path d="M4456 3794 c-10 -25 1 -29 14 -5 6 12 7 21 1 21 -5 0 -12 -7 -15 -16z"/>
<path d="M4513 3779 c-6 -6 -8 -21 -5 -35 6 -34 38 -32 47 3 3 15 11 31 16 34
6 3 -3 6 -19 7 -16 0 -34 -4 -39 -9z"/>
<path d="M4618 3759 c-15 -8 -18 -25 -18 -99 l0 -90 40 0 40 0 0 74 c0 41 2
81 5 88 4 9 -4 19 -20 26 -30 14 -26 14 -47 1z"/>
<path d="M4920 3732 c0 -7 -8 -12 -17 -10 -17 3 -18 -1 -14 -35 0 -7 16 -21
35 -30 l34 -16 -3 35 c-2 34 -35 85 -35 56z"/>
<path d="M4436 3685 c4 -8 8 -15 10 -15 2 0 4 7 4 15 0 8 -4 15 -10 15 -5 0
-7 -7 -4 -15z"/>
<path d="M4365 3640 c-11 -17 5 -32 21 -19 7 6 11 15 8 20 -7 12 -21 11 -29
-1z"/>
<path d="M4430 3620 c0 -5 5 -10 10 -10 6 0 10 5 10 10 0 6 -4 10 -10 10 -5 0
-10 -4 -10 -10z"/>
<path d="M4409 3584 c-9 -11 -9 -18 -1 -26 14 -14 42 -3 42 16 0 20 -27 27
-41 10z"/>
<path d="M4884 3586 c-3 -8 -4 -20 -3 -27 4 -22 -12 -49 -25 -43 -6 3 -2 -1 9
-10 11 -8 25 -20 32 -25 8 -7 15 -5 24 6 14 17 39 80 39 101 0 17 -69 16 -76
-2z"/>
<path d="M4345 3480 c-4 -6 -2 -17 5 -25 8 -10 8 -19 1 -34 -15 -28 12 -56 40
-41 23 13 24 28 4 57 -9 12 -14 28 -13 34 4 16 -28 24 -37 9z"/>
<path d="M4420 3380 c0 -5 5 -10 10 -10 6 0 10 5 10 10 0 6 -4 10 -10 10 -5 0
-10 -4 -10 -10z"/>
<path d="M4530 3235 c0 -16 6 -25 15 -25 21 0 31 30 14 41 -23 14 -29 11 -29
-16z"/>
<path d="M4328 3183 c7 -3 16 -2 19 1 4 3 -2 6 -13 5 -11 0 -14 -3 -6 -6z"/>
<path d="M4765 3180 c3 -5 8 -10 11 -10 2 0 4 5 4 10 0 6 -5 10 -11 10 -5 0
-7 -4 -4 -10z"/>
<path d="M4736 3162 c-2 -4 -1 -14 4 -22 7 -11 11 -12 25 0 13 10 13 15 3 21
-17 11 -26 11 -32 1z"/>
<path d="M4830 3104 c0 -8 5 -12 10 -9 6 4 8 11 5 16 -9 14 -15 11 -15 -7z"/>
<path d="M4633 3073 c-17 -6 -16 -30 0 -36 8 -3 20 -1 28 4 12 7 12 10 -1 22
-8 8 -21 13 -27 10z"/>
<path d="M4774 3065 c-7 -18 3 -35 21 -35 15 0 28 27 19 41 -8 14 -34 11 -40
-6z"/>
<path d="M4700 3035 c0 -8 7 -15 15 -15 9 0 12 6 9 15 -4 8 -10 15 -15 15 -5
0 -9 -7 -9 -15z"/>
<path d="M4607 3024 c-9 -10 2 -24 19 -24 8 0 14 7 14 15 0 15 -21 21 -33 9z"/>
<path d="M4590 2960 c0 -5 5 -10 10 -10 6 0 10 5 10 10 0 6 -4 10 -10 10 -5 0
-10 -4 -10 -10z"/>
<path d="M5170 3570 c0 -5 5 -10 11 -10 5 0 7 5 4 10 -3 6 -8 10 -11 10 -2 0
-4 -4 -4 -10z"/>
<path d="M5220 3490 c0 -13 7 -20 20 -20 13 0 20 7 20 20 0 13 -7 20 -20 20
-13 0 -20 -7 -20 -20z"/>
<path d="M5266 3443 c-12 -12 -6 -33 9 -33 8 0 15 6 15 14 0 17 -14 28 -24 19z"/>
<path d="M5230 3359 c0 -5 -4 -7 -10 -4 -5 3 -15 3 -20 0 -15 -9 28 -65 50
-65 24 0 31 34 13 59 -15 22 -33 28 -33 10z"/>
<path d="M5386 3245 c-4 -11 1 -15 19 -15 18 0 23 4 19 15 -4 8 -12 15 -19 15
-7 0 -15 -7 -19 -15z"/>
<path d="M5213 3233 c-7 -2 -13 -15 -13 -28 0 -35 -10 -55 -29 -55 -9 0 -1 -8
16 -16 18 -9 30 -20 27 -25 -9 -16 5 -10 25 10 17 17 30 52 34 95 1 14 -5 20
-23 22 -14 1 -31 0 -37 -3z"/>
<path d="M5291 3180 c-14 -8 -7 -30 9 -30 11 0 21 28 12 34 -5 3 -14 1 -21 -4z"/>
<path d="M5292 3038 c6 -18 28 -21 28 -4 0 9 -7 16 -16 16 -9 0 -14 -5 -12
-12z"/>
<path d="M1024 3715 c-4 -8 -12 -15 -20 -15 -17 0 -19 -16 -3 -25 6 -4 8 -13
5 -21 -9 -24 21 -15 38 11 13 19 14 30 6 45 -13 24 -19 25 -26 5z"/>
<path d="M1050 3595 c0 -8 4 -15 10 -15 5 0 7 7 4 15 -4 8 -8 15 -10 15 -2 0
-4 -7 -4 -15z"/>
<path d="M3033 3760 c-31 -12 -31 -50 -1 -50 12 0 30 -7 40 -17 25 -23 31 -12
18 36 -11 42 -19 46 -57 31z"/>
<path d="M2996 3634 c-3 -9 -6 -19 -6 -24 0 -16 52 -70 61 -64 6 4 6 10 0 18
-8 9 -7 18 3 31 20 28 9 55 -24 55 -16 0 -30 -7 -34 -16z"/>
<path d="M3100 3615 c-6 -8 -8 -20 -4 -26 5 -9 11 -7 21 6 23 33 9 51 -17 20z"/>
<path d="M3217 3624 c-8 -8 1 -24 14 -24 5 0 9 7 9 15 0 15 -12 20 -23 9z"/>
<path d="M3040 3520 c0 -5 5 -10 10 -10 6 0 10 5 10 10 0 6 -4 10 -10 10 -5 0
-10 -4 -10 -10z"/>
<path d="M3092 3518 c-17 -17 -15 -48 3 -48 10 0 15 10 15 30 0 34 -1 35 -18
18z"/>
<path d="M3130 3510 c0 -5 5 -10 10 -10 6 0 10 5 10 10 0 6 -4 10 -10 10 -5 0
-10 -4 -10 -10z"/>
<path d="M3157 3392 c-9 -10 -14 -22 -10 -27 5 -4 0 -5 -9 -2 -21 8 -48 -1
-48 -15 0 -6 6 -8 14 -5 9 4 29 -12 52 -39 37 -43 57 -53 68 -35 11 17 -6 40
-37 51 -25 8 -29 13 -17 20 10 6 20 4 32 -7 16 -14 18 -14 24 2 8 20 -18 69
-38 73 -8 1 -22 -6 -31 -16z"/>
<path d="M3132 3232 c4 -32 32 -37 36 -6 2 15 -3 23 -18 27 -18 5 -21 2 -18
-21z"/>
<path d="M2985 3170 c-3 -5 1 -10 10 -10 9 0 13 5 10 10 -3 6 -8 10 -10 10 -2
0 -7 -4 -10 -10z"/>
<path d="M3160 3060 c0 -5 5 -10 10 -10 6 0 10 5 10 10 0 6 -4 10 -10 10 -5 0
-10 -4 -10 -10z"/>
<path d="M3195 2950 c-3 -5 -1 -10 4 -10 6 0 11 5 11 10 0 6 -2 10 -4 10 -3 0
-8 -4 -11 -10z"/>
<path d="M2330 3726 c0 -9 5 -16 10 -16 6 0 10 4 10 9 0 6 -4 13 -10 16 -5 3
-10 -1 -10 -9z"/>
<path d="M2310 3685 c0 -8 7 -15 15 -15 8 0 15 7 15 15 0 8 -7 15 -15 15 -8 0
-15 -7 -15 -15z"/>
<path d="M2085 3531 c-8 -15 14 -53 28 -48 18 6 15 51 -5 55 -9 2 -19 -2 -23
-7z"/>
<path d="M2320 3489 c0 -5 5 -7 10 -4 6 3 10 8 10 11 0 2 -4 4 -10 4 -5 0 -10
-5 -10 -11z"/>
<path d="M2067 3464 c-16 -16 -6 -35 16 -32 12 2 22 10 22 18 0 16 -26 25 -38
14z"/>
<path d="M2151 3432 c-8 -15 -7 -23 2 -30 17 -14 40 1 35 23 -5 26 -25 30 -37
7z"/>
<path d="M2314 3426 c-7 -31 4 -55 17 -35 12 19 11 59 -1 59 -5 0 -12 -11 -16
-24z"/>
<path d="M2025 3420 c-3 -5 -1 -10 4 -10 6 0 11 5 11 10 0 6 -2 10 -4 10 -3 0
-8 -4 -11 -10z"/>
<path d="M2250 3410 c0 -5 5 -10 10 -10 6 0 10 5 10 10 0 6 -4 10 -10 10 -5 0
-10 -4 -10 -10z"/>
<path d="M2044 3367 c-30 -20 -32 -24 -38 -111 -6 -91 -2 -130 17 -153 14 -19
45 -16 57 6 11 22 14 281 3 280 -5 0 -22 -10 -39 -22z"/>
<path d="M2137 3383 c-11 -10 -8 -51 3 -58 6 -4 8 -10 5 -15 -3 -5 -1 -11 5
-15 5 -3 10 -21 10 -40 0 -41 11 -49 36 -30 18 14 18 15 -4 33 -17 13 -24 30
-26 67 -3 28 -5 53 -5 58 -1 9 -15 9 -24 0z"/>
<path d="M2236 3381 c-4 -7 -5 -15 -2 -18 9 -9 19 4 14 18 -4 11 -6 11 -12 0z"/>
<path d="M2222 3335 c-7 -8 -10 -15 -8 -15 3 0 1 -11 -4 -25 -6 -15 -6 -25 0
-25 5 0 10 -10 13 -22 3 -22 4 -22 15 5 7 17 19 27 32 27 25 0 25 4 -2 40 -25
34 -28 35 -46 15z"/>
<path d="M1747 3274 c-7 -7 13 -54 24 -54 13 0 19 33 8 46 -12 15 -22 17 -32
8z"/>
<path d="M2135 3180 c-14 -16 -14 -18 0 -23 8 -4 15 -13 15 -22 0 -17 9 -19
29 -6 17 11 6 68 -14 68 -8 0 -22 -8 -30 -17z"/>
<path d="M2211 3188 c0 -7 13 -44 30 -83 16 -38 26 -56 22 -40 -4 17 -6 45 -6
63 1 22 -3 32 -13 32 -11 0 -13 6 -9 20 5 14 2 20 -9 20 -9 0 -16 -6 -15 -12z"/>
<path d="M1781 3124 c0 -11 3 -14 6 -6 3 7 2 16 -1 19 -3 4 -6 -2 -5 -13z"/>
<path d="M2317 3103 c-4 -3 -7 -13 -7 -21 0 -12 3 -12 15 -2 8 7 15 16 15 21
0 11 -14 12 -23 2z"/>
<path d="M2180 3072 c0 -18 4 -32 9 -32 5 0 8 11 7 25 -4 38 -16 43 -16 7z"/>
<path d="M2300 3035 c0 -8 5 -15 10 -15 6 0 10 7 10 15 0 8 -4 15 -10 15 -5 0
-10 -7 -10 -15z"/>
<path d="M2172 2994 c4 -21 22 -23 26 -1 2 10 -3 17 -13 17 -10 0 -15 -6 -13
-16z"/>
<path d="M1516 3301 c-4 -5 3 -15 15 -21 27 -15 31 -10 9 13 -11 11 -20 14
-24 8z"/>
<path d="M1394 3289 c-3 -6 -2 -15 4 -21 7 -7 14 -3 21 11 10 17 9 21 -3 21
-8 0 -18 -5 -22 -11z"/>
<path d="M1052 3276 c1 -10 8 -17 13 -17 15 1 12 24 -3 29 -9 3 -13 -2 -10
-12z"/>
<path d="M1115 3190 c-17 -34 -13 -65 10 -74 12 -4 15 5 15 49 0 30 -2 55 -5
55 -2 0 -12 -14 -20 -30z"/>
<path d="M1394 3192 c-11 -18 -8 -42 6 -42 12 0 18 23 11 42 -6 17 -7 17 -17
0z"/>
<path d="M1430 3190 c0 -5 5 -10 10 -10 6 0 10 5 10 10 0 6 -4 10 -10 10 -5 0
-10 -4 -10 -10z"/>
<path d="M1170 3180 c0 -5 7 -10 16 -10 8 0 12 5 9 10 -3 6 -10 10 -16 10 -5
0 -9 -4 -9 -10z"/>
<path d="M1150 3150 c0 -5 5 -10 10 -10 6 0 10 5 10 10 0 6 -4 10 -10 10 -5 0
-10 -4 -10 -10z"/>
<path d="M960 3101 c0 -6 5 -13 10 -16 6 -3 10 1 10 9 0 9 -4 16 -10 16 -5 0
-10 -4 -10 -9z"/>
<path d="M1012 3081 c4 -13 18 -16 19 -4 0 4 -5 9 -11 12 -7 2 -11 -2 -8 -8z"/>
<path d="M1110 3070 c0 -5 5 -10 10 -10 6 0 10 5 10 10 0 6 -4 10 -10 10 -5 0
-10 -4 -10 -10z"/>
<path d="M1275 3070 c-3 -5 -1 -10 4 -10 6 0 11 5 11 10 0 6 -2 10 -4 10 -3 0
-8 -4 -11 -10z"/>
<path d="M1152 3045 c-12 -27 -3 -39 23 -29 9 4 14 13 11 21 -3 8 -6 19 -6 24
0 18 -17 9 -28 -16z"/>
<path d="M1230 3029 c0 -5 5 -7 10 -4 6 3 10 8 10 11 0 2 -4 4 -10 4 -5 0 -10
-5 -10 -11z"/>
<path d="M1377 2989 c-9 -6 -17 -17 -17 -24 0 -23 28 -18 35 6 9 26 4 30 -18
18z"/>
</g>
</svg>
