<svg xmlns="http://www.w3.org/2000/svg" width="18.484" height="15.609" viewBox="0 0 18.484 15.609">
  <path id="Path_25" data-name="Path 25" d="M88.2,379.989a1.124,1.124,0,0,0-1.1-.646,2.345,2.345,0,0,0-.755.136c-.112.043-11.163,4.266-15.7,6.125a1.266,1.266,0,0,0-.765.682.873.873,0,0,0,.45,1.043c1.126.5,3.469,1.185,4.2,1.4.242.8,1.088,3.611,1.481,4.813a.788.788,0,0,0,.81.5c.059,0,.1,0,.1,0a.419.419,0,0,0,.271-.146.413.413,0,0,0,.1-.241l.234-3.39,1.8,1.348c1.41,1.054,3.089,2.3,4.03,2.984a1.668,1.668,0,0,0,.961.363,1.312,1.312,0,0,0,1.2-1.082c.779-3.031,1.921-8.759,2.6-12.182l.149-.749A1.446,1.446,0,0,0,88.2,379.989Zm-11.446,9.443-.208,3.011c-.513-1.636-1.266-4.147-1.275-4.177,0-.008-.01-.014-.013-.022l0-.018L83.9,382.6a4.249,4.249,0,0,1,.813-.453c.3-.066.374.054.32.127a14.768,14.768,0,0,1-1.2,1.135l-6.888,5.7v0A.413.413,0,0,0,76.758,389.432Z" transform="translate(-69.84 -379.343)" fill="#fff"/>
</svg>
