<svg xmlns="http://www.w3.org/2000/svg" width="16.936" height="14.302" viewBox="0 0 16.936 14.302">
  <path id="Path_99" data-name="Path 99" d="M1228.666,668.59a1.029,1.029,0,0,0-1.009-.592,2.141,2.141,0,0,0-.691.124c-.1.039-10.228,3.908-14.381,5.613a1.159,1.159,0,0,0-.7.624.8.8,0,0,0,.412.955c1.032.454,3.178,1.085,3.851,1.279.222.738,1,3.309,1.357,4.41a.723.723,0,0,0,.742.458.894.894,0,0,0,.09,0,.387.387,0,0,0,.248-.134.376.376,0,0,0,.1-.221l.214-3.106,1.65,1.236c1.292.966,2.831,2.111,3.692,2.733a1.525,1.525,0,0,0,.88.333,1.2,1.2,0,0,0,1.1-.991c.714-2.777,1.76-8.026,2.386-11.162l.137-.686A1.324,1.324,0,0,0,1228.666,668.59Zm-2.9,2.093a13.565,13.565,0,0,1-1.1,1.04l-6.311,5.226v0a.38.38,0,0,0-.172.289l-.191,2.759c-.47-1.5-1.16-3.8-1.168-3.828,0-.008-.009-.013-.012-.02l0-.016,7.917-5.155a3.868,3.868,0,0,1,.745-.415C1225.744,670.507,1225.811,670.616,1225.761,670.683Z" transform="translate(-1211.84 -667.998)" fill="#2ba5e0"/>
</svg>
