<svg id="Group_236" data-name="Group 236" xmlns="http://www.w3.org/2000/svg" width="18.37" height="15.131" viewBox="0 0 18.37 15.131">
  <g id="Group_235" data-name="Group 235" transform="translate(0 0)">
    <g id="Group_230" data-name="Group 230">
      <path id="Path_92" data-name="Path 92" d="M1015.335,671.232a7.558,7.558,0,0,1-1.856.53c.3-.05.74-.591.916-.81a3.418,3.418,0,0,0,.618-1.126c.016-.032.028-.072,0-.1a.106.106,0,0,0-.1.008,9.49,9.49,0,0,1-2.2.844.146.146,0,0,1-.152-.041,1.877,1.877,0,0,0-.193-.2,3.886,3.886,0,0,0-1.068-.654,3.721,3.721,0,0,0-1.638-.264,3.918,3.918,0,0,0-1.553.439,4.008,4.008,0,0,0-1.254,1.024,3.85,3.85,0,0,0-.749,1.5,4.065,4.065,0,0,0-.04,1.583c.012.089,0,.1-.076.089a11.773,11.773,0,0,1-7.574-3.856c-.089-.1-.136-.1-.209.008a3.84,3.84,0,0,0,.655,4.538c.148.141.3.281.465.41a3.866,3.866,0,0,1-1.462-.41c-.089-.056-.133-.024-.141.076a2.306,2.306,0,0,0,.024.434,3.883,3.883,0,0,0,2.393,3.1,2.225,2.225,0,0,0,.486.149,4.33,4.33,0,0,1-1.434.045c-.1-.02-.144.032-.1.133a4.033,4.033,0,0,0,3.012,2.522c.137.024.273.024.41.055-.008.013-.016.013-.024.024a4.769,4.769,0,0,1-2.057,1.09,7.363,7.363,0,0,1-3.123.4c-.168-.025-.2-.023-.249,0s-.006.069.048.112c.213.141.43.265.651.386a10.277,10.277,0,0,0,2.088.836,11.122,11.122,0,0,0,10.8-2.525,11.331,11.331,0,0,0,2.988-8.266c0-.119.14-.184.224-.247a7.276,7.276,0,0,0,1.463-1.528.445.445,0,0,0,.091-.293v-.016C1015.4,671.183,1015.41,671.2,1015.335,671.232Z" transform="translate(-997.034 -669.418)" fill="#3cf"/>
    </g>
    <g id="Group_231" data-name="Group 231" transform="translate(5.455 15.066)">
      <path id="Path_93" data-name="Path 93" d="M1006.951,696.807Z" transform="translate(-1006.951 -696.807)" fill="#fff" fill-rule="evenodd"/>
    </g>
    <g id="Group_232" data-name="Group 232" transform="translate(5.315 15.066)">
      <path id="Path_94" data-name="Path 94" d="M1006.836,696.807c-.024,0-.3,0,0,0Z" transform="translate(-1006.696 -696.807)" fill="#fff" fill-rule="evenodd"/>
    </g>
    <g id="Group_233" data-name="Group 233" transform="translate(6.074 15.069)">
      <path id="Path_95" data-name="Path 95" d="M1008.076,696.825c0-.031.325,0,0,0C1008.076,696.809,1008.116,696.825,1008.076,696.825Z" transform="translate(-1008.076 -696.811)" fill="#fff" fill-rule="evenodd"/>
    </g>
    <g id="Group_234" data-name="Group 234" transform="translate(12.495 0.023)">
      <path id="Path_96" data-name="Path 96" d="M1019.826,669.459a.067.067,0,0,1-.076,0Z" transform="translate(-1019.749 -669.459)" fill="#fff" fill-rule="evenodd"/>
    </g>
  </g>
</svg>
