<svg xmlns="http://www.w3.org/2000/svg" width="16.15" height="16.15" viewBox="0 0 16.15 16.15">
  <g id="Group_43" data-name="Group 43" transform="translate(0 0)">
    <g id="Group_41" data-name="Group 41" transform="translate(0 0)">
      <path id="Path_23" data-name="Path 23" d="M151.5,147.955a8.074,8.074,0,0,0-6.785,12.451l-1.227,2.7a.7.7,0,0,0,.642,1,.715.715,0,0,0,.187-.025l3.379-.927a8.075,8.075,0,1,0,3.8-15.2Zm0,14.739a6.659,6.659,0,0,1-3.356-.907.7.7,0,0,0-.356-.1.712.712,0,0,0-.187.025l-2.208.606.769-1.695a.7.7,0,0,0-.07-.7,6.663,6.663,0,1,1,5.407,2.771Z" transform="translate(-143.423 -147.955)" fill="#fff" fill-rule="evenodd"/>
    </g>
    <g id="Group_42" data-name="Group 42" transform="translate(4.15 4.387)">
      <path id="Path_24" data-name="Path 24" d="M158.921,161.805a1.38,1.38,0,0,0-1.177-.265c-.306.125-.5.6-.7.848a.292.292,0,0,1-.379.082,5.325,5.325,0,0,1-2.659-2.278.326.326,0,0,1,.041-.445,1.805,1.805,0,0,0,.483-.785,1.72,1.72,0,0,0-.216-.929A2.2,2.2,0,0,0,153.63,157a.939.939,0,0,0-1.02.152,2.071,2.071,0,0,0-.718,1.64,2.318,2.318,0,0,0,.065.52,4.3,4.3,0,0,0,.5,1.151,9.014,9.014,0,0,0,.521.793,8.046,8.046,0,0,0,2.261,2.1,6.832,6.832,0,0,0,1.41.67,3.133,3.133,0,0,0,1.642.259,1.988,1.988,0,0,0,1.488-1.107.965.965,0,0,0,.069-.565C159.763,162.225,159.236,161.993,158.921,161.805Z" transform="translate(-151.893 -156.908)" fill="#fff" fill-rule="evenodd"/>
    </g>
  </g>
</svg>
