<svg id="Group_229" data-name="Group 229" xmlns="http://www.w3.org/2000/svg" width="18.593" height="13.015" viewBox="0 0 18.593 13.015">
  <g id="Group_228" data-name="Group 228">
    <g id="Group_227" data-name="Group 227">
      <path id="Path_91" data-name="Path 91" d="M1159.377,673.344a4.048,4.048,0,0,0-4.048-4.047h-10.5a4.048,4.048,0,0,0-4.047,4.047v4.92a4.048,4.048,0,0,0,4.047,4.048h10.5a4.047,4.047,0,0,0,4.048-4.048Zm-6.623,2.708-4.187,2.3c-.182.1-.346-.033-.346-.24v-4.714c0-.21.169-.341.351-.237l4.215,2.417A.274.274,0,0,1,1152.754,676.052Z" transform="translate(-1140.784 -669.296)" fill="red"/>
    </g>
  </g>
</svg>
