<svg xmlns="http://www.w3.org/2000/svg" width="19" height="17">
    <path fill="#000" fill-rule="evenodd" d="M17.161 10.321H1.838A1.835 1.835 0 0 1 0 8.499c0-1.002.827-1.821 1.838-1.821h15.323c1.011 0 1.839.819 1.839 1.821a1.836 1.836 0 0 1-1.839 1.822zm0-6.679H1.838A1.835 1.835 0 0 1 0 1.821C0 .819.827-.001 1.838-.001h15.323c1.011 0 1.839.82 1.839 1.822a1.836 1.836 0 0 1-1.839 1.821zM1.838 13.356h15.323c1.011 0 1.839.82 1.839 1.822a1.835 1.835 0 0 1-1.839 1.821H1.838A1.835 1.835 0 0 1 0 15.178c0-1.002.827-1.822 1.838-1.822z"/>
</svg>
